<?xml version="1.0" encoding="UTF-8"?>
<svg id="Objects" xmlns="http://www.w3.org/2000/svg" viewBox="0 0 748.56 757.54">
  <defs>
    <style>
      .cls-1 {
        fill: #fff;
      }
    </style>
  </defs>
  <path class="cls-1" d="m177.97,744c-1.43-.45-2.84-1.02-4.3-1.3-1.39-.28-2.86-.15-4.04-1.19-.26-.23-.74-.29-1.13-.32-2.37-.14-4.26-1.42-6.25-2.52-1.81-1-3.6-2-5.36-3.1-2.86-1.79-5.28-4.09-7.59-6.47-1.81-1.86-3.32-4.04-4.79-6.19-1.32-1.92-2.5-3.94-3.58-6-2.01-3.87-2.75-8.17-4.05-12.29-.19-.6-.2-1.27-.2-1.9-.03-4-.08-7.99-.01-11.99.01-.9.46-1.8.71-2.7.13-.46.34-.91.38-1.38.35-4.11,2.43-7.57,3.99-11.25,1.21-2.86,3.08-5.24,4.86-7.64,1.77-2.4,4.13-4.4,6.35-6.44,1.58-1.45,3.18-3.09,5.09-3.89,2.38-1,4.27-2.8,6.85-3.48,2.45-.64,4.73-1.93,7.14-2.96,0-1.04,0-1.83,0-2.62,0-21.84,0-43.68,0-65.52,0-.48.02-.96,0-1.44-.09-1.36-.97-2.35-2.36-2.51-.79-.09-1.6-.05-2.4-.05-24.72,0-49.44,0-74.17,0h-3.22c-.64-1.94-.8-114.08-.2-117.34.94,0,1.95,0,2.96,0,25.04,0,50.08,0,75.13,0,4.19,0,4.26-.08,4.26-4.3,0-14.96-.1-29.92.09-44.88.04-2.95-1.15-4.74-3.23-6.29-2.07-1.55-4.39-2.8-6.26-4.55-2.89-2.71-6.16-4.91-9.28-7.29-3.09-2.35-6.02-4.91-9.28-7.07-3.3-2.18-6.24-4.9-9.37-7.35-2.86-2.23-5.76-4.41-8.63-6.63-3.27-2.53-6.52-5.09-9.81-7.59-2.99-2.27-6.06-4.45-9.04-6.73-3.18-2.44-6.2-5.1-9.47-7.41-2.56-1.81-4.73-4.12-7.51-5.67-1.44-.8-2.57-2.13-3.89-3.16-2.78-2.18-5.59-4.33-8.4-6.48-1.42-1.09-2.85-2.18-4.27-3.27-2.99-2.29-5.98-4.58-8.98-6.86-1.2-.92-2.4-1.85-3.61-2.76-3.2-2.41-6.44-4.78-9.62-7.22-3.08-2.36-6.1-4.8-9.16-7.19-2.96-2.31-5.99-4.53-8.87-6.94-2.79-2.33-6.01-4.09-8.56-6.76-1.25-1.31-3-2.13-4.48-3.23-2.54-1.89-5.06-3.82-7.57-5.76-.9-.69-.95-2.17-.1-2.83,1.81-1.42,3.64-2.8,5.46-4.2,3.33-2.56,6.66-5.12,10-7.66,2.95-2.25,5.92-4.48,8.86-6.73,1.39-1.07,2.73-2.21,4.13-3.27,2.37-1.8,4.78-3.54,7.16-5.33,1.33-1.01,2.6-2.08,3.91-3.11.78-.61,1.61-1.17,2.39-1.78,1.66-1.3,3.28-2.66,4.95-3.94,2.97-2.28,6.09-4.39,8.91-6.84,2.68-2.32,5.89-3.95,8.32-6.61,1.18-1.29,2.86-2.1,4.28-3.18,3.38-2.55,6.74-5.12,10.11-7.68,2.96-2.24,6.09-4.28,8.83-6.75,2.65-2.4,5.91-3.97,8.32-6.69,1.19-1.34,3.05-2.06,4.51-3.18,2.75-2.12,5.4-4.37,8.15-6.5,2.78-2.15,5.64-4.21,8.45-6.32,1.45-1.09,2.88-2.2,4.33-3.29,2.52-1.88,5.07-3.72,7.57-5.63,3.1-2.38,6.15-4.82,9.24-7.22,3.46-2.7,6.93-5.4,10.41-8.08,3.13-2.42,6.35-4.73,9.39-7.26.87-.73,1.64-1.76,1.63-3.24-.06-17.04-.05-34.08-.05-51.12,0-.16-.04-.31-.08-.53-1.39-1.13-2.94-1.77-4.75-2.3-2.47-.72-4.64-2.41-7.04-3.48-1.87-.83-3.45-2.03-5-3.28-1.98-1.6-3.97-3.2-5.81-4.96-1.25-1.18-2.38-2.53-3.33-3.96-1.97-2.94-4.23-5.69-5.33-9.17-.59-1.85-1.56-3.58-2.3-5.39-.24-.58-.26-1.25-.42-1.86-.32-1.21-.7-2.41-1-3.63-.15-.61-.27-1.25-.29-1.88-.07-3.12,0-6.24-.16-9.35-.16-3.42.85-6.66,1.73-9.84,1.05-3.79,2.7-7.41,4.78-10.88,2.16-3.62,4.66-6.86,7.61-9.79,3.24-3.23,6.78-6.07,11.03-7.93,1.43-.63,2.72-1.55,4.11-2.27.55-.28,1.22-.33,1.82-.51.98-.3,1.95-.62,2.92-.95.22-.07.42-.26.64-.3,2.57-.5,5.12-1.25,7.71-1.4,3.82-.22,7.7-.27,11.5.09,2.44.23,4.79,1.37,7.18,2.07,1.58.46,3.09,1.04,4.62,1.68,3.04,1.28,5.79,3,8.52,4.78,2.89,1.9,5.36,4.3,7.69,6.84.57.62,1.08,1.31,1.58,1.99.77,1.05,1.45,2.17,2.28,3.17,1.28,1.54,1.85,3.49,2.97,5.04,1.03,1.42.95,3.26,2.2,4.5.25.25.38.74.37,1.12-.07,1.65.85,2.79,2.01,4.08h377.45c.07,5.73.02,11.29.03,16.86,0,5.68,0,11.36,0,17.04v118.58c1.4.08,2.65.2,3.89.2,40.72.01,81.45,0,122.17,0,1.03,0,2.07,0,3.42,0,.08,1.09.2,2.08.2,3.08.02,9.04,0,18.08,0,27.12,0,43.68,0,87.36,0,131.05,0,1.25-.11,2.51-.18,3.9h-282.01c-.09-1.22-.24-2.38-.24-3.54-.01-21.2,0-42.4-.02-63.6,0-1.18-.09-2.35-.15-3.7-1.13-.05-2.07-.14-3.01-.14-36.16,0-72.33.02-108.49-.08-1.92,0-3.2.97-4.42,1.84-3.34,2.39-6.4,5.17-9.62,7.73-1.5,1.19-3.17,2.18-4.68,3.36-2.75,2.13-5.4,4.38-8.17,6.48-2.96,2.24-6.04,4.31-8.99,6.57-3.22,2.47-6.31,5.08-9.49,7.6-1.52,1.2-3.13,2.28-4.65,3.47-2.81,2.2-5.55,4.49-8.39,6.65-2.88,2.18-5.89,4.21-8.78,6.38-1.44,1.08-2.7,2.41-4.14,3.49-2.98,2.24-6.19,4.2-9,6.63-2.94,2.54-6.13,4.72-9.16,7.13-2.89,2.3-5.82,4.56-8.75,6.82-3.3,2.54-6.6,5.07-9.91,7.6-2.93,2.24-5.99,4.33-8.77,6.75-2.68,2.34-5.82,4.04-8.34,6.6-1.33,1.35-3.26,2.09-4.66,3.39-2.61,2.42-5.63,4.31-8.36,6.58-2.56,2.13-5.27,4.18-8.03,6.08-.99.68-1.43,1.39-1.48,2.48-.02.48-.01.96-.01,1.44,0,15.52,0,31.04,0,46.56,0,3.72.03,3.75,3.73,3.75,25.2,0,50.4,0,75.61,0,1.03,0,2.05,0,3.24,0v117.12c-1.12.07-2.28.21-3.44.21-24.88.01-49.76,0-74.65.01q-4.49,0-4.49,4.57c0,21.52,0,43.04,0,64.56,0,.95,0,1.9,0,2.74,1.56,1.18,3.06,1.8,4.8,2.26,2.28.6,4.47,1.79,6.52,3.03,1.8,1.09,3.54,2.37,5.32,3.49,2.32,1.45,4.02,3.48,6.02,5.22,2.26,1.97,3.91,4.52,5.45,7.01,1.32,2.13,2.93,4.23,3.45,6.85.2,1.01.9,1.91,1.29,2.89.38.94.67,1.91.99,2.87.05.15.11.3.14.46.91,5.49,2.32,10.95,1.34,16.59-.42,2.43-.7,4.89-1.34,7.26-.73,2.69-1.5,5.44-2.77,7.9-2.7,5.22-5.88,10.19-10.14,14.29-1.86,1.79-4.16,3.12-6.21,4.72-2.88,2.25-6.3,3.52-9.41,5.34-.38.22-.94.12-1.4.24-2.64.71-5.19,1.79-7.99,1.87-.53.01-1.05.66-1.57,1.01h-11.52ZM584.15,202.04c0-1.6,0-2.71,0-3.83,0-40.4,0-80.8,0-121.2q0-4.61-4.63-4.62c-115.53,0-231.06,0-346.59,0-.4,0-.8,0-1.2,0-2.58.02-3.53.86-3.91,3.38-.1.69-.3,1.38-.59,2.01-.7,1.53-1.49,3.02-2.24,4.52-.65,1.31-1.13,2.74-1.98,3.9-1.65,2.26-3.43,4.44-5.29,6.53-1.54,1.73-3.11,3.52-4.98,4.85-2.89,2.05-5.84,4.04-9.05,5.59-1.26.61-2.49,1.55-3.8,1.68-1.86.19-3.27,1.07-4.89,2.13,0,.76,0,1.63,0,2.51,0,4.88,0,9.76,0,14.64,0,11.44.03,22.88-.03,34.32,0,1.49.42,2.69,1.52,3.56,3.09,2.46,6.26,4.82,9.37,7.26,2.17,1.7,4.22,3.57,6.48,5.15,2.59,1.82,5.06,3.76,7.51,5.77,2.84,2.34,6.02,4.25,8.96,6.46,2.91,2.19,5.7,4.54,8.57,6.8,2.89,2.28,5.85,4.47,8.71,6.79,3.06,2.48,6.21,4.86,9.34,7.23,3.09,2.35,6.1,4.82,9.29,7.07,3.37,2.38,6.58,4.99,9.85,7.5,2.82,2.16,5.63,4.34,8.44,6.51,3.33,2.57,6.67,5.13,10,7.7,2.91,2.24,5.88,4.4,8.69,6.75,3.02,2.53,6.21,4.84,9.31,7.26,3.17,2.47,6.33,5.02,9.64,7.34,1.28.89,2.45,1.95,3.69,2.89,2.89,2.18,5.81,4.31,8.7,6.5,2.1,1.59,4.13,3.27,6.23,4.86,1.28.98,2.72,1.31,4.39,1.31,17.92-.06,35.84-.04,53.76-.04,17.76,0,35.52,0,53.28-.01,1.16,0,2.32-.14,3.62-.23.06-1.39.16-2.49.16-3.6,0-21.28,0-42.56.01-63.84,0-1.08.1-2.17.16-3.38,8.85,0,17.4,0,25.95,0h51.6c8.64,0,17.28,0,25.92,0,8.54,0,17.08.02,26.02-.02Zm-268.01,83.21c.36-2.19-1.27-2.71-2.06-3.18-3.26-1.97-5.92-4.69-9.05-6.81-3.48-2.36-6.71-5.11-10.05-7.68-2.81-2.17-5.63-4.34-8.44-6.51-3.37-2.6-6.74-5.19-10.11-7.78-1.22-.94-2.47-1.83-3.66-2.79-.99-.81-1.86-1.77-2.89-2.52-2.97-2.16-6.3-3.92-8.9-6.44-2.64-2.55-5.83-4.3-8.54-6.7-2.75-2.44-5.82-4.53-8.74-6.78-3.24-2.49-6.39-5.11-9.73-7.46-3.35-2.35-6.54-4.93-9.79-7.39-3.06-2.32-6.26-4.52-9.11-7.11-1.33-1.21-3.09-1.82-4.25-3.12-2.36-2.63-5.44-4.35-8.17-6.46-2.82-2.18-5.55-4.52-8.57-6.5-3.3-2.16-6.16-4.98-9.31-7.39-.54-.41-1.92-.55-2.34-.17-1.78,1.61-3.99,2.66-5.7,4.25-2.66,2.49-5.74,4.4-8.53,6.7-2.88,2.39-5.91,4.61-8.85,6.93-1.17.93-2.24,2-3.45,2.87-2.97,2.15-6.06,4.15-8.99,6.36-2.79,2.11-5.41,4.46-8.16,6.63-3.64,2.87-7.35,5.66-11.02,8.5-1.14.88-2.24,1.83-3.4,2.68-2.99,2.17-6.24,4.05-8.95,6.52-2.64,2.4-5.67,4.23-8.35,6.55-1.44,1.25-3.25,2.09-4.63,3.4-2.65,2.52-5.73,4.47-8.56,6.73-2.87,2.29-5.78,4.54-8.66,6.81-1.24.98-2.43,2.04-3.71,2.97-2.92,2.14-5.93,4.16-8.81,6.35-2.8,2.12-5.48,4.39-8.22,6.58-1.75,1.4-3.5,2.81-5.29,4.15-1.59,1.19-3.28,2.26-4.88,3.43-1.03.75-1.98,1.6-2.97,2.41-.73.6-.85,2.13-.11,2.7,2.52,1.93,5.16,3.71,7.6,5.76,2.79,2.35,5.83,4.42,8.76,6.62,1.56,1.18,3.11,2.37,4.65,3.57,2.89,2.25,5.77,4.51,8.65,6.79,1.18.94,2.21,2.12,3.5,2.85,3.46,1.98,6.28,4.76,9.43,7.13,3.07,2.31,6.01,4.77,9.09,7.07,2.96,2.21,6.08,4.23,9.02,6.47,2.75,2.1,5.33,4.42,8.05,6.56,1.57,1.23,3.33,2.21,4.89,3.44,2.74,2.15,5.35,4.47,8.1,6.6,2.84,2.2,5.83,4.2,8.69,6.39,2.78,2.13,5.44,4.42,8.22,6.56,3.4,2.62,6.91,5.09,10.28,7.74,4.23,3.33,8.48,6.61,12.81,9.81,3.24,2.39,6.26,5.08,9.46,7.52.48.36,1.73.42,2.13.06,1.84-1.64,3.8-3.08,5.79-4.52,2.79-2.02,5.39-4.3,8.12-6.41,3.53-2.73,7.11-5.38,10.66-8.08,3.27-2.5,6.53-5.01,9.78-7.52,2.95-2.28,5.91-4.57,8.84-6.87,1.25-.98,2.42-2.05,3.67-3.01,3.05-2.33,6.15-4.6,9.21-6.92,1.27-.97,2.35-2.24,3.73-2.98,2.73-1.46,4.72-3.86,7.35-5.45,1.45-.89,2.53-2.39,3.99-3.26,3.26-1.94,5.86-4.74,9.05-6.77,1.54-.98,2.89-2.24,4.35-3.34,2.83-2.15,5.69-4.25,8.49-6.42,2.66-2.06,5.24-4.24,7.91-6.29,1.53-1.17,3.42-1.96,4.7-3.34,2.41-2.6,5.55-4.23,8.16-6.57,2.71-2.43,5.77-4.48,8.76-6.56,2.44-1.7,4.33-4.1,7.15-5.34.91-.4,1.49-1.54,1.91-2Zm161.59,57.83c1.43.08,2.68.22,3.94.22,76,.01,152.01,0,228.01,0q3.98,0,3.98-3.97c0-36.32,0-72.64,0-108.96q0-4.38-4.4-4.38c-75.76,0-151.53,0-227.29,0-.64,0-1.29-.07-1.92.02-.76.11-1.5.36-2.32.56v116.49Zm-224.38,141.45c-1.33,0-2.28,0-3.23,0-44.47,0-88.95,0-133.42,0-.56,0-1.12-.03-1.68.02-1.19.1-2.42,1.22-2.58,2.39-.08.55-.03,1.12-.03,1.68,0,21.12,0,42.23,0,63.35,0,.56-.04,1.12.03,1.68.16,1.39.74,1.93,2.17,2.05.48.04.96.01,1.44.01,44.87,0,89.75,0,134.62,0h2.79c.16-1.4.41-2.57.41-3.74.02-21.2.03-42.39,0-63.59,0-1.17-.3-2.33-.51-3.84Zm-46.99,212.28s-.01,0-.02,0c0-1.76.01-3.52,0-5.27,0-.48,0-1-.2-1.42-.86-1.91-1.55-3.96-2.76-5.62-1.25-1.71-2.14-3.73-4.11-4.93-1.78-1.08-3.28-2.6-5.08-3.63-1.48-.85-3.18-1.39-4.84-1.82-1.76-.45-3.59-.63-5.39-.89-.39-.06-.8-.01-1.19.05-1.49.23-2.97.46-4.45.73-.93.17-1.91.29-2.77.66-1.47.64-2.83,1.53-4.29,2.2-1.91.89-3.42,2.23-4.81,3.78-1.3,1.44-2.37,2.99-3.32,4.7-.94,1.69-2.27,4.32-2.47,5.88-.2,1.58-.56,3.13-.74,4.71-.09.77.03,1.58.14,2.36.1.71.44,1.4.45,2.1.03,3.17,1.33,5.79,2.89,8.49,1.81,3.12,4.1,5.6,7.03,7.56,2.09,1.4,4.38,2.71,6.78,3.1,6.42,1.02,12.82,1.08,18.61-2.7,3.16-2.06,5.76-4.61,7.75-7.87.85-1.39,1.11-2.95,1.9-4.26.57-.95.86-1.84.87-2.88.03-1.68,0-3.36,0-5.04ZM183.47,37.71c-1.74.08-3.57.15-5.41.26-.55.03-1.13.1-1.62.32-1.76.79-3.55,1.55-5.2,2.53-1.76,1.04-3.47,2.16-4.82,3.82-1.23,1.5-2.41,2.99-3.32,4.72-.52.99-2.26,4.53-2.4,5.43-.26,1.73-.61,3.44-.81,5.18-.09.77.06,1.57.17,2.35.1.71.44,1.4.44,2.1.01,3.08,1.29,5.61,2.8,8.24,1.57,2.74,3.43,5.04,5.96,6.84.94.67,1.9,1.3,2.92,1.84,1.69.9,3.25,2.07,5.27,2.29,1.81.2,3.58.66,5.38.96.46.08.95.04,1.41-.04,1.64-.28,3.27-.61,4.91-.92.7-.14,1.46-.16,2.09-.46,1.53-.73,3.03-1.54,4.49-2.4,3.33-1.94,5.86-4.6,7.89-7.92.85-1.39,1.16-2.88,1.84-4.27.37-.75.81-1.58.83-2.38.09-3.59.05-7.18.02-10.77,0-.54-.04-1.18-.31-1.62-1.41-2.31-2.13-4.95-3.83-7.15-1.89-2.43-4.17-4.25-6.69-5.94-1.36-.91-2.96-1.11-4.25-1.91-.88-.54-1.69-.81-2.63-.87-1.68-.1-3.35-.16-5.13-.24Z"/>
  <path class="cls-1" d="m324.96,450.19c.48-.13.93-.35,1.38-.35,124.48-.02,248.96-.03,373.44-.02.45,0,.91.23,1.44.37v211.03h-376.27v-211.03Zm24.02,188.1h3.73c106.97,0,213.93,0,320.9,0,.56,0,1.12,0,1.68,0,2.68-.03,3.03-.38,3.09-3.04,0-.24,0-.48,0-.72,0-52.72,0-105.44,0-158.16,0-.94-.1-1.88-.15-2.69-.32-.21-.44-.33-.58-.38-.22-.08-.46-.13-.7-.17-.24-.04-.48-.06-.72-.06-108.57,0-217.13,0-325.7,0-.39,0-.79.09-1.18.14-.07.01-.15.06-.21.1-.06.05-.12.11-.48.46v3.49c0,42.16,0,84.32,0,126.48,0,10.32,0,20.64.01,30.96,0,1.09.18,2.18.3,3.59Z"/>
  <path class="cls-1" d="m502.08,272.97c-.65-1.87-.84-20.06-.28-23.44,1.76-.47,182.93-.68,187.55-.22.7,1.98.73,21.22,0,23.66h-187.26Z"/>
  <path class="cls-1" d="m501.71,320.07v-23.43c1.89-.56,156.95-.83,163.66-.29.95,1.13,1.17,2.49,1.16,3.96-.03,5.2-.04,10.4,0,15.6.01,1.49-.23,2.84-1.23,4.17h-163.59Z"/>
  <path class="cls-1" d="m654.18,591.33v22.81h-235.21c-.04-7.54-.01-15.01-.02-22.26.24-.27.28-.34.34-.39.06-.05.13-.1.2-.11.31-.06.63-.15.94-.15,77.34-.02,154.67-.03,232.01-.03.47,0,.95.07,1.73.14Z"/>
  <path class="cls-1" d="m654.17,497.05v22.9h-235.1v-22.57c.63-.11,1.22-.27,1.83-.31.88-.05,1.76-.02,2.64-.02,75.59,0,151.18,0,226.77,0,1.19,0,2.38,0,3.85,0Z"/>
  <path class="cls-1" d="m419.09,567.18v-22.63c2.04-.52,232.3-.63,235.07-.11v22.74c-78.32,0-156.59,0-235.07,0Z"/>
  <path class="cls-1" d="m371.95,614.01v-22.63c.84-.07,1.6-.19,2.37-.19,6.16-.02,12.32-.01,18.47,0,.48,0,.96,0,1.43.07,1.33.19,1.54,1.11,1.54,2.27-.03,4.96-.01,9.92-.01,14.87,0,1.28.03,2.56-.01,3.84-.04,1.4-.46,1.84-1.78,2.05-.16.02-.32.02-.48.02-6.88-.01-13.75-.03-20.63-.05-.22,0-.45-.12-.89-.25Z"/>
  <path class="cls-1" d="m371.96,519.73v-22.46c.84-.08,1.6-.2,2.36-.2,6.15-.02,12.3,0,18.45-.01.24,0,.48,0,.72,0,1.9.14,2.25.5,2.26,2.57.02,4.15,0,8.31,0,12.46,0,2,.03,3.99-.01,5.99-.03,1.45-.38,1.8-1.78,2.02-.08.01-.16.01-.24.01-7.1-.04-14.21-.08-21.31-.13-.07,0-.14-.07-.45-.25Z"/>
  <path class="cls-1" d="m372,566.99v-22.7c.91-.06,1.69-.16,2.46-.16,6.07-.01,12.14,0,18.21,0,.32,0,.64-.02.96.01,1.69.15,2.05.52,2.12,2.22.03.72,0,1.44,0,2.16,0,5.27,0,10.54,0,15.81,0,2.63-.2,2.85-2.89,2.86-6.23.02-12.46.01-18.69,0-.7,0-1.4-.11-2.17-.18Z"/>
</svg>