<?xml version="1.0" encoding="UTF-8"?>
<svg id="Capa_2" data-name="Capa 2" xmlns="http://www.w3.org/2000/svg" viewBox="0 0 29.93 32.57">
  <defs>
    <style>
      .cls-1 {
        fill: #a3ffdb;
      }
    </style>
  </defs>
  <g id="Capa_1-2" data-name="Capa 1">
    <g>
      <path class="cls-1" d="m15.03,32.57c-1.11,0-2.23-.4-3.12-1.18l-5.36-4.75c-1.6-1.42-2.08-3.63-1.28-5.59-.7-.85-1.24-1.82-1.59-2.86-.2.06-.41.09-.62.09-1.75,0-3.06-2.05-3.06-4.77s1.39-4.87,3.18-4.77C3.38,3.89,7.29,0,12.06,0h5.82c4.77,0,8.67,3.89,8.87,8.75,1.81-.09,3.18,1.98,3.18,4.77s-1.32,4.77-3.06,4.77c-.21,0-.42-.03-.62-.09-.34,1-.85,1.93-1.51,2.75.74,1.75.57,4.1-1.23,5.69l-5.36,4.75c-.89.79-2,1.18-3.12,1.18ZM4.82,14.46l.37,2.04c.26,1.42.91,2.72,1.89,3.75l.49.51-.35.61c-.61,1.06-.68,2.72.59,3.85l5.36,4.75c1.08.95,2.64.96,3.72,0l5.36-4.75c1.31-1.16,1.2-2.85.55-3.92l-.37-.61.48-.52c.94-1.03,1.58-2.29,1.82-3.67l.37-2.04,1.3,1.62c.16.2.33.32.46.32.41,0,1.17-1.09,1.17-2.88s-.76-2.88-1.17-2.88c-.14,0-.29.14-.37.22l-1.63,1.71v-3.42c0-4-3.14-7.25-6.99-7.25h-5.82c-3.85,0-6.99,3.25-6.99,7.25v3.43l-1.63-1.71c-.08-.08-.23-.22-.37-.22-.41,0-1.17,1.09-1.17,2.88s.76,2.88,1.17,2.88c.13,0,.3-.12.46-.32l1.3-1.62Z"/>
      <path class="cls-1" d="m14.97,27.49L4.4,6.26h21.13l-10.57,21.23ZM7.45,8.15l7.51,15.09,7.51-15.09H7.45Z"/>
    </g>
  </g>
</svg>